<svg style="position: absolute; width: 0; height: 0; overflow: hidden;" aria-hidden="true" version="1.1" xmlns="http://www.w3.org/2000/svg" xmlns:xlink="http://www.w3.org/1999/xlink">
    <style>
        .default-palette, .palette0 {color: currentColor;
            --color0: #f4f4fd;
            --color1: #4d5ae5;
            --color2: #2e2f42;
            --color3: #fff;
        }
    </style>
    <defs>
        <symbol id="icon-fav-icon" viewBox="0 0 32 32">
            <rect fill="var(--color1, #4d5ae5)" width="32" height="32" rx="6" />
            <text fill="var(--color3, #fff)" font-family="Arial" font-size="18" font-weight="700" text-anchor="middle" x="16" y="21">W</text>
        </symbol>
        <symbol id="icon-twitter" viewBox="0 0 40 40" fill="none">
            <path fill="var(--color1, #4d5ae5)" d="M40 20c0 5.5228-2.2386 10.5228-5.8579 14.1421S25.5228 40 20 40 9.4772 37.7614 5.8579 34.1421C2.2386 30.5228 0 25.5228 0 20S2.2386 9.4772 5.8579 5.8579C9.4772 2.2386 14.4772 0 20 0s10.5228 2.2386 14.1421 5.8579C37.7614 9.4772 40 14.4772 40 20z" />
            <path fill="var(--color0, #f4f4fd)" d="M32 12.5585c-0.8925 0.3915-1.8435 0.651-2.835 0.777 1.02-0.609 1.7985-1.566 2.1645-2.7195-0.951 0.567-2.001 0.9675-3.12 1.191-0.903-0.9615-2.19-1.557-3.594-1.557-2.724 0-4.917 2.211-4.917 4.9215 0 0.39 0.033 0.765 0.114 1.122-4.0905-0.1995-7.71-2.16-10.1415-5.1465-0.4245 0.7365-0.6735 1.5795-0.6735 2.487 0 1.704 0.8775 3.2145 2.1855 4.089-0.7905-0.015-1.566-0.2445-2.223-0.606 0 0.015 0 0.0345 0 0.054 0 2.391 1.7055 4.377 3.942 4.8345-0.4005 0.1095-0.837 0.162-1.29 0.162-0.315 0-0.633-0.018-0.9315-0.084 0.6375 1.9485 2.4465 3.381 4.5975 3.4275-1.674 1.3095-3.7995 2.0985-6.1005 2.0985-0.4035 0-0.7905-0.018-1.1775-0.0675 2.1795 1.4055 4.7625 2.208 7.548 2.208 9.054 0 14.004-7.5 14.004-14.001 0-0.2175-75e-4-0.4275-0.018-0.636 0.9765-0.693 1.797-1.5585 2.466-2.5545z" />
        </symbol>
        <symbol id="icon-tech" viewBox="0 0 64 64" fill="var(--color1, #4d5ae5)">
            <path d="M63.9481 9.0481c-0.1259-0.3851-0.4586-0.6666-0.8608-0.7254L59.2665 7.767 57.5566 4.3046c-0.3583-0.7297-1.5541-0.7297-1.9125-1e-4L53.9342 7.767 50.1133 8.3229c-0.4021 0.0586-0.7349 0.3392-0.8619 0.7253-0.1248 0.3862-0.0214 0.8107 0.2699 1.0934l2.7659 2.6956-0.6528 3.8059c-0.0682 0.4 0.096 0.8043 0.4235 1.0433 0.3318 0.2411 0.7648 0.2709 1.1243 0.081l3.4177-1.7974 3.4177 1.7974c0.1557 0.0821 0.3275 0.1226 0.4971 0.1226 0.2207 0 0.4416-0.0682 0.6272-0.2037 0.3285-0.2389 0.4928-0.6433 0.4235-1.0433l-0.6527-3.8059 2.7659-2.6956c0.2898-0.2837 0.3944-0.7072 0.2695-1.0934zM59.0223 11.702c-0.2506 0.2443-0.3659 0.5984-0.3061 0.9441l0.3818 2.2282-2.001-1.0517c-0.1557-0.0822-0.3264-0.1227-0.4971-0.1227s-0.3403 0.0405-0.4972 0.1227l-2.0011 1.0517 0.3819-2.2282c0.0597-0.3457-0.0555-0.6987-0.3062-0.9441l-1.6202-1.5786 2.2379-0.3254c0.3477-0.0501 0.6475-0.2687 0.8032-0.5835l1.0006-2.0266 1.0005 2.0266c0.1557 0.3146 0.4555 0.5334 0.8032 0.5835l2.2379 0.3254z" />
            <path d="M52.2669 41.0444h-2.1334v2.1334h2.1334z" />
            <path d="M52.2669 45.3112h-2.1334v2.1334h2.1334z" />
            <path d="M54.4003 43.1778h-2.1334v2.1334h2.1334z" />
            <path d="M50.1337 43.1778h-2.1334v2.1334h2.1334z" />
            <path d="M44.8002 52.778h-2.1334v2.1333h2.1334z" />
            <path d="M44.8002 57.0446h-2.1334v2.1335h2.1334z" />
            <path d="M46.9336 54.9113h-2.1334v2.1335h2.1334z" />
            <path d="M42.6668 54.9113h-2.1334v2.1335h2.1334z" />
            <path d="M32 48.5113h-2.1334v2.1334H32z" />
            <path d="M32 52.778h-2.1334v2.1333H32z" />
            <path d="M34.1334 50.6445H32v2.1334h2.1334z" />
            <path d="M29.8666 50.6445h-2.1334v2.1334h2.1334z" />
            <path d="M11.733 12.2439H9.5996l0 2.1334h2.1334z" />
            <path d="M11.733 16.5108H9.5996l0 2.1334h2.1334z" />
            <path d="M13.8663 14.3774h-2.1334v2.1334h2.1334z" />
            <path d="M9.5996 14.3774H7.4662l0 2.1334h2.1334z" />
            <path fill="var(--color2, #2e2f42)" d="M49.4295 28.3189c-0.5749-0.7755-1.4186-1.2746-2.3765-1.4091-0.9621-0.1365-1.9115 0.1162-2.6796 0.704l-2.5035 1.9189-11e-4 11e-4-3.7953 2.8342-2.7158-1.0816c4.8427-2.1728 8.2274-7.0166 8.2274-12.6402 0-7.646-6.2455-13.8669-13.9224-13.8669-7.6769 0-13.9222 6.2209-13.9222 13.8669 0 2.7713 0.8288 5.3483 2.24 7.5168l-5.5276-0.048c-32e-4 0-63e-4 0-96e-4 0-0.0171 0-0.0309 85e-4-0.0469 97e-4-0.1056 42e-4-0.2091 0.0256-0.3103 0.0618-0.0257 97e-4-0.0523 0.015-0.0768 0.0267-0.0127 53e-4-0.0256 63e-4-0.0384 0.0127l-6.4662 3.1926c-11e-4 0-21e-4 0-21e-4 1e-3l-3.7868 1.821c-0.0416 0.0181-0.0843 0.0426-0.1259 0.0704-1.5094 1.0047-2.0235 2.9781-1.1968 4.5909 0.4405 0.8576 1.1904 1.4892 2.1121 1.7782 0.3552 0.1108 0.7179 0.1653 1.0784 0.1653 0.5792 0 1.1531-0.1418 1.6789-0.4223l2.7755-1.4763 4.5281-2.3382 2.7136-0.016L4.3963 44.4237c-1e-3 11e-4-21e-4 11e-4-32e-4 21e-4l-2.6775 2.6667c-0.6325 0.6294-0.9802 1.4645-0.9802 2.3553 0 0.8896 0.3477 1.7269 0.9802 2.3574 0.6497 0.6464 1.5041 0.9706 2.3585 0.9706 0.8555 0 1.7087-0.3242 2.3605-0.9706l2.6283-2.6177 3.4817-2.5995 1.8016 1.7941-3.5233 3.5083c-1e-3 12e-4-21e-4 12e-4-32e-4 22e-4l-2.6775 2.6666c-0.6325 0.6294-0.9802 1.4645-0.9802 2.3553 0 0.8896 0.3477 1.7269 0.9802 2.3574 0.6497 0.6464 1.5052 0.9707 2.3596 0.9707s1.7099-0.3243 2.3605-0.9707l2.6784-2.6667 4.2849-4.2666c11e-4-12e-4 11e-4-22e-4 21e-4-33e-4l2.0193-2-75e-4-75e-4c0.0127-0.0128 0.0308-0.0172 0.0437-0.0309l10.3319-11.3164 6.942 0.9877c0.0501 75e-4 0.1003 0.0107 0.1504 0.0107 0.1291 0 0.2539-0.0309 0.3744-0.0768 0.0352-0.0127 0.0661-0.0299 0.0992-0.0469 0.0384-0.0192 0.0789-0.0298 0.1153-0.0543l6.4267-4.2667c0.0235-0.016 0.0363-0.0417 0.0586-0.0587 0.0257-0.0202 0.0577-0.0287 0.081-0.0512l2.5429-2.3819c1.3232-1.2398 1.5056-3.2707 0.4239-4.7235zM4.2608 35.5403c-0.3466 0.1856-0.7402 0.2229-1.1168 0.1035-0.3733-0.1163-0.6762-0.3713-0.8533-0.7158-0.3222-0.6272-0.1355-1.391 0.4287-1.8037l2.6273-1.2641 0.6325 1.8486 0.2656 0.7765zM11.2551 31.8849l-3.0966 1.6-0.5109-1.4934-0.3669-1.0731 4.0535-2.0012zM41.4539 18.644c0 1.8368-0.4384 3.5692-1.1979 5.119l-8.3627-3.7984c-0.0876-1.1467-0.6827-2.1504-1.5766-2.7756l2.9281-9.7206c4.7553 1.5126 8.2091 5.9489 8.2091 11.1756zM17.876 18.644c0-6.4694 5.2886-11.7335 11.789-11.7335 0.5056 0 1.0005 0.0426 1.4901 0.1045l-2.864 9.5074c-0.0384-11e-4-0.0747-0.0118-0.1142-0.0118-2.0651 0-3.7451 1.6747-3.7451 3.7335 0 2.0586 1.68 3.7334 3.7451 3.7334 1.3888 0 2.5888-0.7669 3.2363-1.8892l7.7249 3.5095c-2.1494 2.8928-5.5894 4.7798-9.4733 4.7798-6.5002 0-11.7888-5.2641-11.7888-11.7336zM29.7887 20.2441c0 0.8821-0.7232 1.6-1.6118 1.6-0.8885 0-1.6117-0.7179-1.6117-1.6 0-0.8822 0.7232-1.6001 1.6117-1.6001 0.8886 0 1.6118 0.7179 1.6118 1.6001zM4.9297 50.2925c-0.4725 0.4683-1.2374 0.4673-1.7088 11e-4-0.2272-0.2272-0.352-0.5268-0.352-0.8458 0-0.3179 0.1248-0.6177 0.352-0.8427l1.9242-1.9169 1.7024 1.695zM11.3574 57.7594c-0.4725 0.4682-1.2384 0.4694-1.7099 11e-4-0.2272-0.2272-0.352-0.5269-0.352-0.8459 0-0.3179 0.1248-0.6176 0.352-0.8426l1.9254-1.9179 0.8054 0.8011 0.8982 0.8939zM18.3208 50.8217c-11e-4 1e-3-21e-4 1e-3-33e-4 21e-4l-3.5296 3.52-0.8054-0.8011-0.8982-0.8939 3.5265-3.5104c0 0 0 0 0-1e-3 11e-4-11e-4 21e-4-11e-4 32e-4-21e-4 0.08-0.08 0.1301-0.176 0.1793-0.2709 0.0138-0.0278 0.0405-0.0513 0.0522-0.08 0.0331-0.0821 0.0384-0.1706 0.0513-0.2572 63e-4-0.0491 0.0277-0.0948 0.0277-0.1451 0-0.0715-0.0256-0.1407-0.0405-0.2112-0.0127-0.064-0.0127-0.1292-0.0374-0.1909-0.0405-0.1003-0.1098-0.1888-0.1823-0.2753-0.0203-0.0235-0.0278-0.0533-0.0502-0.0757 0 0 0 0-11e-4 0-11e-4-1e-3-11e-4-33e-4-21e-4-43e-4l-3.2139-3.2c-0.0342-0.0341-0.0779-0.048-0.1163-0.0768-0.0565-0.0437-0.1109-0.0842-0.1739-0.1152-0.0607-0.0299-0.1226-0.048-0.1866-0.0651-0.0682-0.0193-0.1344-0.0342-0.2059-0.0395-0.0651-43e-4-0.1259 21e-4-0.1909 96e-4-0.0715 85e-4-0.1386 0.0181-0.208 0.0405-0.0672 0.0214-0.1268 0.0544-0.1887 0.0896-0.0395 0.0224-0.0843 0.0299-0.1216 0.0576L8.4584 46.973 6.6567 45.1788l4.798-4.7723 8.7212 8.5773zM31.9584 36.7883c-0.0309-42e-4-0.0598 75e-4-0.0906 54e-4-0.0779-43e-4-0.1525 11e-4-0.2304 0.0139-0.0608 0.0106-0.1184 0.0223-0.176 0.0426-0.0683 0.0235-0.1302 0.0555-0.1932 0.0939-0.0597 0.0362-0.1141 0.0746-0.1663 0.1226-0.0257 0.0224-0.0565 0.0331-0.08 0.0586l-9.3966 10.2914-8.6561-8.5132 5.6662-5.6364c0.4171-0.416 0.4193-1.0912 33e-4-1.5094-0.2102-0.2101-0.4864-0.3136-0.7627-0.3125v-1e-3l-4.4374 0.0267 0.0555-3.215 6.2081 0.0534c2.5302 2.5878 6.0587 4.2017 9.9628 4.2017 0.8746 0 1.728-0.0906 2.5589-0.2454 0.08 0.064 0.1589 0.1292 0.2592 0.1697l4.8194 1.92 0.305 1.5168 0.3562 1.7706zM40.0406 37.1446l-0.6261-3.1158 2.8928-2.1601 0.7574 1.0048 1.136 1.5083zM47.5479 31.4826l-1.6758 1.5702-1.8624-2.4726 1.6629-1.2746c0.3104-0.2389 0.7019-0.336 1.0859-0.2859 0.3861 0.0544 0.7275 0.256 0.96 0.5685 0.4331 0.5835 0.3595 1.3974-0.1706 1.8944z" />
            <path fill="var(--color2, #2e2f42)" d="M27.2042 37.0881l-4.286-4.2667c-0.4149-0.4149-1.0891-0.4149-1.5051 0l-4.2848 4.2667c-0.2005 0.2016-0.3137 0.4725-0.3137 0.7562 0 0.2838 0.112 0.5558 0.3137 0.7563l4.2848 4.2667c0.208 0.2069 0.4811 0.3104 0.7531 0.3104s0.545-0.1035 0.752-0.3104l4.286-4.2667c0.2005-0.2005 0.3146-0.4725 0.3146-0.7563 0-0.2837-0.1131-0.5557-0.3146-0.7562zM22.1662 40.606l-2.7734-2.7617 2.7734-2.7616 2.7744 2.7616z" />
            <path fill="var(--color2, #2e2f42)" d="M34.3285 10.1415l-0.5152 2.0716c0.1419 0.0352 3.4753 0.9035 3.4753 4.2977h2.1334c-1e-4-4.0343-3.3313-5.9309-5.0935-6.3693z" />
            <path fill="var(--color2, #2e2f42)" d="M39.422 18.644h-2.1334v2.1335h2.1334z" />
        </symbol>
        <symbol id="icon-strategy" viewBox="0 0 60 64" fill="none">
            <path fill="var(--color2, #2e2f42)" d="M59.4048 44.1952 42.5184 27.1851l1.8741-9.231c0.4836 0.1888 0.9978 0.2875 1.5168 0.2912h0.0128c2.3846 0.0282 4.3404-1.882 4.3687-4.2665s-1.882-4.3404-4.2665-4.3687c-2.3846-0.0281-4.3404 1.882-4.3687 4.2666-6e-3 0.5102 0.0784 1.0174 0.2495 1.4982l-9.92 1.2107L15.8037 0.32C15.6052 0.1175 15.3343 23e-4 15.0507 0c-0.28 15e-4-0.5482 0.1129-0.7467 0.3104l-3.0251 3.008c-0.4164 0.4165-0.4164 1.0917 0 1.5083l1.6278 1.6512c-6.3062 11.5958-4.2579 25.9556 5.0389 35.3258 0.0853 0.0816 0.1843 0.1476 0.2923 0.1952-0.0672 0.361-0.1023 0.7272-0.1046 1.0944v12.3734h-12.8C2.3893 55.4701 35e-4 57.856 0 60.8v2.1333C0 63.5224 0.4776 64 1.0667 64h49.0666c0.5891 0 1.0667-0.4776 1.0667-1.0667V60.8c-35e-4-2.944-2.3893-5.3299-5.3333-5.3333h-12.8v-5.4838c2.0052 0.4206 4.0482 0.635 6.097 0.64 4.9163-53e-4 9.7543-1.2309 14.08-3.5669l1.6363 1.6459c0.1985 0.2025 0.4695 0.3177 0.7531 0.32 0.28-15e-4 0.5481-0.113 0.7466-0.3104l3.0251-3.008c0.4164-0.4166 0.4164-1.0918 0-1.5083zM44.4181 12.4661c0.8354-0.8309 2.1862-0.8272 3.017 82e-4 0.8309 0.8353 0.8272 2.1861-82e-4 3.0169-0.3998 0.3977-0.9409 0.6209-1.5049 0.6208h-64e-4c-1.1781-61e-4-2.1284-0.9661-2.1223-2.1444 3e-3-0.564 0.2291-1.1037 0.629-1.5015zM41.9072 19.4752l-1.1968 5.8912-2.3509-2.3648zM40.6955 17.6715l-3.84 3.8176-2.9707-2.9867zM45.8667 57.6c1.7673 0 3.2 1.4327 3.2 3.2v1.0667H2.1333l0-1.0667c0-1.7673 1.4327-3.2 3.2-3.2zM30.9333 53.3333v2.1334H20.2667v-2.1334zM20.2667 51.2v-8.1067c0-2.5877 2.3925-4.6933 5.3333-4.6933s5.3333 2.1056 5.3333 4.6933V51.2zM33.0667 47.808v-4.7147c0-3.7642-3.3494-6.8266-7.4667-6.8266-2.6621-0.0408-5.1515 1.3142-6.5621 3.5722-8.1155-8.5476-9.943-21.2904-4.5572-31.7742l37.2036 37.4169c-5.7448 2.9224-12.3303 3.7452-18.6176 2.3264zM55.6448 46.4405l-1.5029-1.5114L15.04 5.5915 13.5307 4.0789 15.04 2.5749 30.9099 18.5344c74e-4 0 0.0117 0.0139 0.0192 0.0192l26.2293 26.3829z" />
        </symbol>
        <symbol id="icon-punctuality" viewBox="0 0 62 64" fill="none">
            <path fill="var(--color2, #2e2f42)" d="M61.2183 30.6025C61.2149 13.6978 47.5078-34e-4 30.6025 0 13.6978 34e-4-34e-4 13.7109 0 30.6157 29e-4 43.9316 8.6138 55.7178 21.2988 59.7681c0.1211 0.0381 0.2471 0.0576 0.3736 0.0571 0.2412-5e-4 0.4775-0.0649 0.685-0.1875 0.27-0.1597 0.4717-0.4136 0.5664-0.7129l7.73-24.5c2.1133-0.0107 3.8174-1.7329 3.8062-3.8457-0.0108-2.1133-1.7325-3.8174-3.8457-3.8066-0.5684 24e-4-1.1294 0.1333-1.6402 0.3828L18.7622 16.9419c-0.5068-0.4893-1.314-0.4751-1.8032 0.0312-0.4776 0.4947-0.4776 1.2779 0 1.7725l10.2065 10.2183c-0.7832 1.5986-0.3354 3.5283 1.0728 4.6181L20.873 56.9277C6.3174 51.5659-1.1357 35.4199 4.2261 20.8643 9.5879 6.3086 25.7339-1.1445 40.2896 4.2173 54.8452 9.5791 62.2983 25.7256 56.9365 40.2808c-2.6196 7.1113-8.0019 12.8623-14.9243 15.9467l-0.7959-3.7485c-0.1455-0.689-0.8227-1.1294-1.5117-0.9834-0.2173 0.0464-0.419 0.1485-0.585 0.2964l-7.6738 6.8511c-0.5264 0.4682-0.5732 1.2744-0.1045 1.8008 0.1524 0.1709 0.3477 0.2978 0.5664 0.3676l9.7974 3.127c0.6704 0.2153 1.3887-0.1533 1.604-0.8242 0.0683-0.2119 0.0796-0.4375 0.0337-0.6553l-0.7822-3.6782c11.3286-4.7759 18.684-15.8843 18.6577-28.1783zM30.6094 29.3272c0.7041 0 1.2754 0.5712 1.2754 1.2753 0 0.7046-0.5713 1.2754-1.2754 1.2754-0.7046 0-1.2754-0.5708-1.2754-1.2754 0-0.7041 0.5708-1.2753 1.2754-1.2753zM34.8101 59.0552l4.3681-3.8965 1.2056 5.6807z" />
        </symbol>
        <symbol id="icon-logo" viewBox="0 0 115 24" fill="none">
            <path fill="var(--color1, #4d5ae5)" d="M5.706 5.756H8.01l1.458 4.23 1.476-4.23h2.286l-2.196 5.814 1.62 4.068 3.618-9.918h2.7L13.86 18.5h-2.142l-2.25-5.364L7.236 18.5H5.094L0 5.72h2.664L6.3 15.638 7.884 11.57zM29.6952 16.322V18.5h-8.874V5.72h8.712v2.178h-6.228v3.078h5.382v2.016h-5.382v3.33zM42.4678 15.206c0 0.72-0.186 1.326-0.558 1.818-0.372 0.48-0.876 0.846-1.512 1.098-0.624 0.252-1.308 0.378-2.052 0.378h-6.174V5.72h6.84c0.6 0 1.116 0.162 1.548 0.486 0.444 0.312 0.78 0.72 1.008 1.224 0.24 0.492 0.36 1.008 0.36 1.548 0 0.612-0.156 1.194-0.468 1.746s-0.768 0.96-1.368 1.224c0.732 0.216 1.308 0.606 1.728 1.17 0.432 0.564 0.648 1.26 0.648 2.088zM39.9658 14.738c0-0.324-0.066-0.612-0.198-0.864-0.132-0.264-0.312-0.468-0.54-0.612-0.216-0.156-0.468-0.234-0.756-0.234h-3.816v3.366h3.69c0.3 0 0.57-0.072 0.81-0.216 0.252-0.156 0.45-0.36 0.594-0.612s0.216-0.528 0.216-0.828zM34.6558 7.844v3.222h3.312c0.276 0 0.528-0.066 0.756-0.198s0.408-0.318 0.54-0.558c0.144-0.24 0.216-0.528 0.216-0.864 0-0.324-0.066-0.606-0.198-0.846-0.12-0.24-0.288-0.426-0.504-0.558-0.204-0.132-0.438-0.198-0.702-0.198z" />
            <path fill="var(--color2, #2e2f42)" d="M52.946 9.068c-0.084-0.084-0.24-0.198-0.468-0.342-0.216-0.144-0.486-0.282-0.81-0.414-0.312-0.132-0.654-0.246-1.026-0.342-0.372-0.108-0.75-0.162-1.134-0.162-0.672 0-1.182 0.126-1.53 0.378-0.336 0.252-0.504 0.606-0.504 1.062 0 0.348 0.108 0.624 0.324 0.828s0.54 0.378 0.972 0.522 0.972 0.3 1.62 0.468c0.84 0.204 1.566 0.456 2.178 0.756 0.624 0.288 1.098 0.672 1.422 1.152 0.336 0.468 0.504 1.092 0.504 1.872 0 0.684-0.126 1.272-0.378 1.764-0.252 0.48-0.6 0.87-1.044 1.17s-0.948 0.522-1.512 0.666c-0.564 0.132-1.164 0.198-1.8 0.198s-1.272-0.066-1.908-0.198-1.248-0.318-1.836-0.558c-0.588-0.252-1.128-0.552-1.62-0.9l1.098-2.142c0.108 0.108 0.3 0.252 0.576 0.432 0.276 0.168 0.612 0.342 1.008 0.522 0.396 0.168 0.828 0.312 1.296 0.432s0.942 0.18 1.422 0.18c0.672 0 1.182-0.114 1.53-0.342s0.522-0.552 0.522-0.972c0-0.384-0.138-0.684-0.414-0.9s-0.66-0.402-1.152-0.558c-0.492-0.168-1.074-0.348-1.746-0.54-0.804-0.228-1.476-0.48-2.016-0.756-0.54-0.288-0.942-0.648-1.206-1.08s-0.396-0.972-0.396-1.62c0-0.876 0.204-1.608 0.612-2.196 0.42-0.6 0.984-1.05 1.692-1.35 0.708-0.312 1.494-0.468 2.358-0.468 0.6 0 1.164 0.066 1.692 0.198 0.54 0.132 1.044 0.306 1.512 0.522s0.888 0.45 1.26 0.702zM66.4691 7.898h-4.086V18.5h-2.466V7.898h-4.086V5.72h10.638zM74.0136 18.59c-1.02 0-1.89-0.168-2.61-0.504-0.708-0.348-1.284-0.822-1.728-1.422-0.432-0.6-0.75-1.278-0.954-2.034-0.204-0.768-0.306-1.566-0.306-2.394V5.72h2.484v6.516c0 0.528 0.048 1.044 0.144 1.548 0.108 0.492 0.282 0.936 0.522 1.332s0.558 0.708 0.954 0.936 0.888 0.342 1.476 0.342c0.6 0 1.098-0.114 1.494-0.342 0.408-0.24 0.726-0.558 0.954-0.954 0.24-0.396 0.414-0.84 0.522-1.332 0.108-0.504 0.162-1.014 0.162-1.53V5.72h2.466v6.516c0 0.876-0.108 1.698-0.324 2.466-0.204 0.768-0.534 1.446-0.99 2.034-0.444 0.576-1.02 1.032-1.728 1.368-0.708 0.324-1.554 0.486-2.538 0.486zM82.6356 18.5V5.72h4.644c1.392 0 2.556 0.288 3.492 0.864 0.936 0.564 1.638 1.332 2.106 2.304 0.468 0.96 0.702 2.028 0.702 3.204 0 1.296-0.258 2.424-0.774 3.384s-1.248 1.704-2.196 2.232c-0.936 0.528-2.046 0.792-3.33 0.792zM91.0776 12.092c0-0.828-0.15-1.554-0.45-2.178-0.3-0.636-0.732-1.128-1.296-1.476-0.564-0.36-1.248-0.54-2.052-0.54h-2.16v8.424h2.16c0.816 0 1.506-0.18 2.07-0.54 0.564-0.372 0.99-0.876 1.278-1.512 0.3-0.648 0.45-1.374 0.45-2.178zM96.0604 18.5V5.72h2.484V18.5zM107.205 18.59c-0.936 0-1.788-0.18-2.556-0.54-0.756-0.36-1.41-0.846-1.962-1.458-0.54-0.624-0.96-1.32-1.26-2.088-0.3-0.78-0.45-1.578-0.45-2.394 0-0.852 0.156-1.662 0.468-2.43 0.324-0.78 0.762-1.47 1.314-2.07 0.564-0.612 1.224-1.092 1.98-1.44 0.768-0.36 1.608-0.54 2.52-0.54 0.924 0 1.764 0.186 2.52 0.558 0.768 0.372 1.422 0.87 1.962 1.494s0.96 1.32 1.26 2.088 0.45 1.56 0.45 2.376c0 0.84-0.156 1.65-0.468 2.43-0.312 0.768-0.75 1.458-1.314 2.07-0.552 0.6-1.212 1.074-1.98 1.422-0.756 0.348-1.584 0.522-2.484 0.522zM103.497 12.11c0 0.552 0.084 1.086 0.252 1.602s0.408 0.978 0.72 1.386c0.324 0.396 0.714 0.714 1.17 0.954 0.468 0.228 0.996 0.342 1.584 0.342 0.6 0 1.134-0.12 1.602-0.36 0.468-0.252 0.858-0.582 1.17-0.99 0.312-0.42 0.546-0.882 0.702-1.386 0.168-0.516 0.252-1.032 0.252-1.548 0-0.552-0.09-1.08-0.27-1.584-0.168-0.516-0.414-0.972-0.738-1.368-0.312-0.408-0.702-0.726-1.17-0.954-0.456-0.24-0.972-0.36-1.548-0.36-0.612 0-1.152 0.126-1.62 0.378-0.456 0.24-0.84 0.564-1.152 0.972s-0.552 0.864-0.72 1.368c-0.156 0.504-0.234 1.02-0.234 1.548z" />
        </symbol>
        <symbol id="icon-linkedin" viewBox="0 0 40 40" fill="none">
            <path fill="var(--color1, #4d5ae5)" d="M40 20c0 5.5228-2.2386 10.5228-5.8579 14.1421S25.5228 40 20 40 9.4772 37.7614 5.8579 34.1421C2.2386 30.5228 0 25.5228 0 20S2.2386 9.4772 5.8579 5.8579C9.4772 2.2386 14.4772 0 20 0s10.5228 2.2386 14.1421 5.8579C37.7614 9.4772 40 14.4772 40 20z" />
            <g fill="var(--color0, #f4f4fd)" clip-path="url(#clip0_431671_2301)">
                <path d="M31.9941 32v-1e-3h6e-3v-8.802c0-4.306-0.927-7.623-5.961-7.623-2.4201 0-4.0441 1.328-4.7071 2.587h-0.07v-2.185h-4.773v16.023h4.97v-7.934c0-2.089 0.396-4.109 2.983-4.109 2.5491 0 2.5871 2.384 2.5871 4.243V32z" />
                <path d="M8.396 15.9771h4.976V32H8.396z" />
                <path d="M10.882 8C9.291 8 8 9.291 8 10.882c0 1.591 1.291 2.909 2.882 2.909 1.591 0 2.882-1.318 2.882-2.909C13.763 9.291 12.472 8 10.882 8z" />
            </g>
            <defs>
                <clipPath id="clip0_431671_2301">
                    <rect fill="#fff" transform="translate(8.00003 8)" width="24" height="24" />
                </clipPath>
            </defs>
        </symbol>
        <symbol id="icon-instagram" viewBox="0 0 40 40" fill="none">
            <path fill="var(--color1, #4d5ae5)" d="M40 20c0 5.5228-2.2386 10.5228-5.8579 14.1421S25.5228 40 20 40 9.4772 37.7614 5.8579 34.1421C2.2386 30.5228 0 25.5228 0 20S2.2386 9.4772 5.8579 5.8579C9.4772 2.2386 14.4772 0 20 0s10.5228 2.2386 14.1421 5.8579C37.7614 9.4772 40 14.4772 40 20z" />
            <g fill="var(--color0, #f4f4fd)" clip-path="url(#clip0_431671_2298)">
                <path d="M31.9765 15.0561c-0.0562-1.2752-0.2624-2.1519-0.5578-2.9116-0.3048-0.8064-0.7736-1.5283-1.3879-2.1285-0.6001-0.6095-1.3268-1.0831-2.1239-1.3831-0.764-0.2954-1.6361-0.5016-2.9114-0.5578C23.7108 8.0141 23.303 8 20.0445 8c-3.2584 0-3.6663 0.0141-4.9463 0.0703-1.2752 0.0563-2.1519 0.2627-2.9114 0.5579-0.8065 0.3047-1.5285 0.7736-2.1286 1.3878-0.6095 0.6002-1.0829 1.3269-1.3831 2.1239-0.2954 0.7643-0.5016 1.6362-0.5578 2.9114-0.061 1.2847-0.0751 1.6926-0.0751 4.951 0 3.2585 0.0141 3.6663 0.0703 4.9463 0.0562 1.2752 0.2626 2.1519 0.558 2.9116 0.3048 0.8064 0.7782 1.5283 1.3877 2.1285 0.6001 0.6095 1.3268 1.0831 2.1239 1.3831 0.7642 0.2954 1.6362 0.5016 2.9116 0.5578 1.2797 0.0564 1.6878 0.0703 4.9462 0.0703 3.2585 0 3.6663-0.0139 4.9463-0.0703 1.2752-0.0562 2.1519-0.2624 2.9114-0.5578 1.6129-0.6236 2.8881-1.8989 3.5117-3.5116 0.2953-0.7642 0.5017-1.6364 0.5579-2.9116 0.0562-1.28 0.0703-1.6878 0.0703-4.9463 0-3.2584-48e-4-3.6663-0.061-4.9462zM29.8153 24.8549c-0.0517 1.1721-0.2486 1.805-0.4126 2.227-0.4033 1.0455-1.2331 1.8753-2.2787 2.2786-0.4219 0.1641-1.0595 0.361-2.227 0.4124-1.2659 0.0564-1.6455 0.0704-4.8477 0.0704-3.2023 0-3.5867-0.014-4.848-0.0704-1.1721-0.0514-1.805-0.2483-2.227-0.4124-0.5203-0.1923-0.9939-0.4971-1.3783-0.8956-0.3985-0.3891-0.7032-0.858-0.8955-1.3783-0.1641-0.4219-0.361-1.0596-0.4125-2.227-0.0564-1.2659-0.0703-1.6457-0.0703-4.8479s0.0139-3.5867 0.0703-4.8478c0.0515-1.1721 0.2484-1.805 0.4125-2.227 0.1923-0.5204 0.497-0.9939 0.9003-1.3785 0.389-0.3985 0.8578-0.7032 1.3783-0.8953 0.422-0.1641 1.0597-0.361 2.227-0.4127 1.2659-0.0562 1.6457-0.0703 4.8477-0.0703 3.207 0 3.5867 0.0141 4.848 0.0703 1.1721 0.0517 1.805 0.2486 2.227 0.4127 0.5203 0.1921 0.9939 0.4968 1.3783 0.8953 0.3985 0.3892 0.7033 0.8581 0.8956 1.3785 0.164 0.422 0.3609 1.0595 0.4126 2.227 0.0562 1.2659 0.0703 1.6456 0.0703 4.8478s-0.0141 3.5773-0.0703 4.8432z" />
                <path d="M20.0445 13.8369c-3.4036 0-6.1652 2.7614-6.1652 6.1653 0 3.4038 2.7616 6.1652 6.1652 6.1652 3.4039 0 6.1653-2.7614 6.1653-6.1652 0-3.4039-2.7614-6.1653-6.1653-6.1653zM20.0445 24.0014c-2.2081 0-3.9992-1.7909-3.9992-3.9992s1.7911-3.9993 3.9992-3.9993c2.2084 0 3.9993 1.791 3.9993 3.9993s-1.7909 3.9992-3.9993 3.9992z" />
                <path d="M27.893 13.5934c0 0.7948-0.6444 1.4393-1.4395 1.4393-0.7948 0-1.4393-0.6445-1.4393-1.4393 0-0.7951 0.6445-1.4393 1.4393-1.4393 0.7951 0 1.4395 0.6442 1.4395 1.4393z" />
            </g>
            <defs>
                <clipPath id="clip0_431671_2298">
                    <rect fill="#fff" transform="translate(8 8)" width="24" height="24" />
                </clipPath>
            </defs>
        </symbol>
        <symbol id="icon-facebook" viewBox="0 0 40 40" fill="none">
            <path fill="var(--color1, #4d5ae5)" d="M40 20c0 5.5228-2.2386 10.5228-5.8579 14.1421S25.5228 40 20 40 9.4772 37.7614 5.8579 34.1421C2.2386 30.5228 0 25.5228 0 20S2.2386 9.4772 5.8579 5.8579C9.4772 2.2386 14.4772 0 20 0s10.5228 2.2386 14.1421 5.8579C37.7614 9.4772 40 14.4772 40 20z" />
            <path fill="var(--color0, #f4f4fd)" d="M23.997 11.985h2.191V8.169C25.81 8.117 24.51 8 22.996 8c-3.159 0-5.323 1.987-5.323 5.639V17h-3.486v4.266h3.486V32h4.274V21.267h3.345l0.531-4.266h-3.877v-2.939c1e-3-1.233 0.333-2.077 2.051-2.077z" />
        </symbol>
        <symbol id="icon-diligence" viewBox="0 0 64 50" fill="none">
            <path fill="var(--color2, #2e2f42)" d="M3.1983 49.0856h51.1732c1.7663 0 3.1984-1.4321 3.1984-3.1983v-4.2645c0-1.7662-1.4321-3.1983-3.1984-3.1983h-1.0661V11.8379l6.0557-5.7366c1.4055 0.6929 3.1067 0.2723 4.0265-0.9974 0.9204-1.2691 0.7913-3.0166-0.305-4.1369-1.0963-1.1202-2.8402-1.2873-4.1296-0.3956-1.2889 0.8922-1.747 2.5835-1.0849 4.0041l-4.5627 4.3254V6.4412c0-1.7662-1.432-3.1983-3.1983-3.1983l-42.6443 0c-1.7663 0-3.1984 1.4321-3.1984 3.1983l0 31.9833H3.1983C1.4321 38.4245 0 39.8566 0 41.6228v4.2645c0 1.7662 1.4321 3.1983 3.1983 3.1983zM60.7682 2.1768c0.5887 0 1.0661 0.4774 1.0661 1.0661 0 0.5888-0.4774 1.0661-1.0661 1.0661-0.5888 0-1.0661-0.4773-1.0661-1.0661 0-0.5887 0.4773-1.0661 1.0661-1.0661zM6.3967 6.4412c0-0.5887 0.4773-1.0661 1.0661-1.0661l42.6443 0c0.5887 0 1.0661 0.4774 1.0661 1.0661v4.4774l-2.1322 2.026V8.5735c0-0.5888-0.4774-1.0662-1.0661-1.0662l-38.3799 0c-0.5888 0-1.0661 0.4774-1.0661 1.0661l0 26.6528c0 0.5887 0.4773 1.0661 1.0661 1.0661h38.3799c0.5887 0 1.0661-0.4774 1.0661-1.0661V15.8774l2.1322-2.0203v24.5674H6.3967zM15.9916 20.3006c-1.4424-41e-4-2.709 0.9568-3.0926 2.3473-0.3837 1.3904 0.2103 2.8651 1.4508 3.6012 1.24 0.7361 2.8199 0.5513 3.8563-0.4518l3.7059 1.8594c0.4305 0.2155 0.9526 0.1145 1.2727-0.2452l7.8777-8.8625 7.7438 5.8027c0.4154 0.3113 0.9954 0.2779 1.3722-0.0786l6.7304-6.3754v16.2624H10.6611V9.6396l36.2477 0v5.3206l-7.543 7.1432-7.8089-5.8543c-0.4435-0.3321-1.0677-0.2696-1.4362 0.1442l-7.9859 8.9854-2.9855-1.4929c0.0219-0.1281 0.0354-0.2572 0.0407-0.3868 0-1.7663-1.4321-3.1984-3.1984-3.1984zM17.0577 23.499c0 0.5887-0.4773 1.0661-1.0661 1.0661-0.5887 0-1.0661-0.4774-1.0661-1.0661 0-0.5888 0.4774-1.0661 1.0661-1.0661 0.5888 0 1.0661 0.4773 1.0661 1.0661zM23.4544 40.5567h10.6611v1.0661c0 0.5888-0.4774 1.0661-1.0661 1.0661h-8.5289c-0.5888 0-1.0661-0.4773-1.0661-1.0661zM2.1322 41.6228c0-0.5887 0.4774-1.0661 1.0661-1.0661h18.1239v1.0661c0 1.7663 1.432 3.1983 3.1983 3.1983h8.5289c1.7662 0 3.1983-1.432 3.1983-3.1983v-1.0661h18.1238c0.5888 0 1.0661 0.4774 1.0661 1.0661v4.2645c0 0.5887-0.4773 1.0661-1.0661 1.0661H3.1983c-0.5887 0-1.0661-0.4774-1.0661-1.0661z" />
        </symbol>
    </defs>
</svg>