<svg xmlns="http://www.w3.org/2000/svg" aria-hidden="true" style="position:absolute;width:0;height:0;overflow:hidden"
     version="1.1">
    <style>
        .default-palette,.palette0{color:currentColor;--color0:#f4f4fd;--color1:#4d5ae5;--color2:#2e2f42;--color3:#fff}
    </style>
    <defs>
        <symbol id="icon-fav-icon" viewBox="0 0 32 32">
            <rect width="32" height="32" fill="var(--color1, #4d5ae5)" rx="6"/>
            <text x="16" y="21" fill="var(--color3, #fff)" font-family="Arial" font-size="18" font-weight="700"
                  text-anchor="middle">W
            </text>
        </symbol>
        <symbol id="icon-twitter" fill="none" viewBox="0 0 40 40">
            <path fill="var(--color1, #4d5ae5)"
                  d="M40 20c0 5.5228-2.2386 10.5228-5.8579 14.1421S25.5228 40 20 40 9.4772 37.7614 5.8579 34.1421C2.2386 30.5228 0 25.5228 0 20S2.2386 9.4772 5.8579 5.8579C9.4772 2.2386 14.4772 0 20 0s10.5228 2.2386 14.1421 5.8579C37.7614 9.4772 40 14.4772 40 20z"/>
            <path fill="var(--color0, #f4f4fd)"
                  d="M32 12.5585c-0.8925 0.3915-1.8435 0.651-2.835 0.777 1.02-0.609 1.7985-1.566 2.1645-2.7195-0.951 0.567-2.001 0.9675-3.12 1.191-0.903-0.9615-2.19-1.557-3.594-1.557-2.724 0-4.917 2.211-4.917 4.9215 0 0.39 0.033 0.765 0.114 1.122-4.0905-0.1995-7.71-2.16-10.1415-5.1465-0.4245 0.7365-0.6735 1.5795-0.6735 2.487 0 1.704 0.8775 3.2145 2.1855 4.089-0.7905-0.015-1.566-0.2445-2.223-0.606 0 0.015 0 0.0345 0 0.054 0 2.391 1.7055 4.377 3.942 4.8345-0.4005 0.1095-0.837 0.162-1.29 0.162-0.315 0-0.633-0.018-0.9315-0.084 0.6375 1.9485 2.4465 3.381 4.5975 3.4275-1.674 1.3095-3.7995 2.0985-6.1005 2.0985-0.4035 0-0.7905-0.018-1.1775-0.0675 2.1795 1.4055 4.7625 2.208 7.548 2.208 9.054 0 14.004-7.5 14.004-14.001 0-0.2175-75e-4-0.4275-0.018-0.636 0.9765-0.693 1.797-1.5585 2.466-2.5545z"/>
        </symbol>
        <symbol id="icon-tech" fill="var(--color1, #4d5ae5)" viewBox="0 0 64 64">
            <path d="M63.948 9.048c-.126-.385-.459-.667-.861-.725L59.267 7.767 57.557 4.305c-.358-.73-1.554-.73-1.912 0L53.934 7.767 50.113 8.323c-.402.059-.735.339-.862.725-.125.386-.021.811.27 1.093l2.766 2.696-.653 3.806c-.068.4.096.804.424 1.043.332.241.765.271 1.124.081l3.418-1.797 3.418 1.797c.156.082.328.123.497.123.221 0 .442-.068.627-.204.329-.239.493-.643.424-1.043l-.653-3.806 2.766-2.696c.29-.284.394-.707.27-1.093zM59.022 11.702c-.251.244-.366.598-.306.944l.382 2.228-2.001-1.052c-.156-.082-.326-.123-.497-.123s-.34.041-.497.123l-2.001 1.052.382-2.228c.06-.346-.055-.699-.306-.944l-1.62-1.579 2.238-.325c.348-.05.648-.269.803-.583l1.001-2.027 1.001 2.027c.156.315.456.533.803.584l2.238.325zM52.267 41.044h-2.133v2.133h2.133zM52.267 45.311h-2.133v2.133h2.133zM54.4 43.178h-2.133v2.133h2.133z"/>
            <path d="M50.134 43.178h-2.133v2.133h2.133zM44.8 52.778h-2.133v2.133h2.133zM44.8 57.045h-2.133v2.134h2.133zM46.934 54.911h-2.133v2.134h2.133z"/>
            <path d="M42.667 54.911h-2.133v2.134h2.133zM32 48.511h-2.133v2.133H32zM32 52.778h-2.133v2.133H32zM34.133 50.645H32v2.133h2.133zM29.867 50.645h-2.133v2.133h2.133zM11.733 12.244H9.6l0 2.133h2.133zM11.733 16.511H9.6l0 2.133h2.133zM13.866 14.377h-2.133v2.133h2.133zM9.6 14.377H7.466l0 2.133h2.133z"/>
            <path fill="var(--color2, #2e2f42)"
                  d="M49.4295 28.3189c-0.5749-0.7755-1.4186-1.2746-2.3765-1.4091-0.9621-0.1365-1.9115 0.1162-2.6796 0.704l-2.5035 1.9189-11e-4 11e-4-3.7953 2.8342-2.7158-1.0816c4.8427-2.1728 8.2274-7.0166 8.2274-12.6402 0-7.646-6.2455-13.8669-13.9224-13.8669-7.6769 0-13.9222 6.2209-13.9222 13.8669 0 2.7713 0.8288 5.3483 2.24 7.5168l-5.5276-0.048c-32e-4 0-63e-4 0-96e-4 0-0.0171 0-0.0309 85e-4-0.0469 97e-4-0.1056 42e-4-0.2091 0.0256-0.3103 0.0618-0.0257 97e-4-0.0523 0.015-0.0768 0.0267-0.0127 53e-4-0.0256 63e-4-0.0384 0.0127l-6.4662 3.1926c-11e-4 0-21e-4 0-21e-4 1e-3l-3.7868 1.821c-0.0416 0.0181-0.0843 0.0426-0.1259 0.0704-1.5094 1.0047-2.0235 2.9781-1.1968 4.5909 0.4405 0.8576 1.1904 1.4892 2.1121 1.7782 0.3552 0.1108 0.7179 0.1653 1.0784 0.1653 0.5792 0 1.1531-0.1418 1.6789-0.4223l2.7755-1.4763 4.5281-2.3382 2.7136-0.016L4.3963 44.4237c-1e-3 11e-4-21e-4 11e-4-32e-4 21e-4l-2.6775 2.6667c-0.6325 0.6294-0.9802 1.4645-0.9802 2.3553 0 0.8896 0.3477 1.7269 0.9802 2.3574 0.6497 0.6464 1.5041 0.9706 2.3585 0.9706 0.8555 0 1.7087-0.3242 2.3605-0.9706l2.6283-2.6177 3.4817-2.5995 1.8016 1.7941-3.5233 3.5083c-1e-3 12e-4-21e-4 12e-4-32e-4 22e-4l-2.6775 2.6666c-0.6325 0.6294-0.9802 1.4645-0.9802 2.3553 0 0.8896 0.3477 1.7269 0.9802 2.3574 0.6497 0.6464 1.5052 0.9707 2.3596 0.9707s1.7099-0.3243 2.3605-0.9707l2.6784-2.6667 4.2849-4.2666c11e-4-12e-4 11e-4-22e-4 21e-4-33e-4l2.0193-2-75e-4-75e-4c0.0127-0.0128 0.0308-0.0172 0.0437-0.0309l10.3319-11.3164 6.942 0.9877c0.0501 75e-4 0.1003 0.0107 0.1504 0.0107 0.1291 0 0.2539-0.0309 0.3744-0.0768 0.0352-0.0127 0.0661-0.0299 0.0992-0.0469 0.0384-0.0192 0.0789-0.0298 0.1153-0.0543l6.4267-4.2667c0.0235-0.016 0.0363-0.0417 0.0586-0.0587 0.0257-0.0202 0.0577-0.0287 0.081-0.0512l2.5429-2.3819c1.3232-1.2398 1.5056-3.2707 0.4239-4.7235zM4.2608 35.5403c-0.3466 0.1856-0.7402 0.2229-1.1168 0.1035-0.3733-0.1163-0.6762-0.3713-0.8533-0.7158-0.3222-0.6272-0.1355-1.391 0.4287-1.8037l2.6273-1.2641 0.6325 1.8486 0.2656 0.7765zM11.2551 31.8849l-3.0966 1.6-0.5109-1.4934-0.3669-1.0731 4.0535-2.0012zM41.4539 18.644c0 1.8368-0.4384 3.5692-1.1979 5.119l-8.3627-3.7984c-0.0876-1.1467-0.6827-2.1504-1.5766-2.7756l2.9281-9.7206c4.7553 1.5126 8.2091 5.9489 8.2091 11.1756zM17.876 18.644c0-6.4694 5.2886-11.7335 11.789-11.7335 0.5056 0 1.0005 0.0426 1.4901 0.1045l-2.864 9.5074c-0.0384-11e-4-0.0747-0.0118-0.1142-0.0118-2.0651 0-3.7451 1.6747-3.7451 3.7335 0 2.0586 1.68 3.7334 3.7451 3.7334 1.3888 0 2.5888-0.7669 3.2363-1.8892l7.7249 3.5095c-2.1494 2.8928-5.5894 4.7798-9.4733 4.7798-6.5002 0-11.7888-5.2641-11.7888-11.7336zM29.7887 20.2441c0 0.8821-0.7232 1.6-1.6118 1.6-0.8885 0-1.6117-0.7179-1.6117-1.6 0-0.8822 0.7232-1.6001 1.6117-1.6001 0.8886 0 1.6118 0.7179 1.6118 1.6001zM4.9297 50.2925c-0.4725 0.4683-1.2374 0.4673-1.7088 11e-4-0.2272-0.2272-0.352-0.5268-0.352-0.8458 0-0.3179 0.1248-0.6177 0.352-0.8427l1.9242-1.9169 1.7024 1.695zM11.3574 57.7594c-0.4725 0.4682-1.2384 0.4694-1.7099 11e-4-0.2272-0.2272-0.352-0.5269-0.352-0.8459 0-0.3179 0.1248-0.6176 0.352-0.8426l1.9254-1.9179 0.8054 0.8011 0.8982 0.8939zM18.3208 50.8217c-11e-4 1e-3-21e-4 1e-3-33e-4 21e-4l-3.5296 3.52-0.8054-0.8011-0.8982-0.8939 3.5265-3.5104c0 0 0 0 0-1e-3 11e-4-11e-4 21e-4-11e-4 32e-4-21e-4 0.08-0.08 0.1301-0.176 0.1793-0.2709 0.0138-0.0278 0.0405-0.0513 0.0522-0.08 0.0331-0.0821 0.0384-0.1706 0.0513-0.2572 63e-4-0.0491 0.0277-0.0948 0.0277-0.1451 0-0.0715-0.0256-0.1407-0.0405-0.2112-0.0127-0.064-0.0127-0.1292-0.0374-0.1909-0.0405-0.1003-0.1098-0.1888-0.1823-0.2753-0.0203-0.0235-0.0278-0.0533-0.0502-0.0757 0 0 0 0-11e-4 0-11e-4-1e-3-11e-4-33e-4-21e-4-43e-4l-3.2139-3.2c-0.0342-0.0341-0.0779-0.048-0.1163-0.0768-0.0565-0.0437-0.1109-0.0842-0.1739-0.1152-0.0607-0.0299-0.1226-0.048-0.1866-0.0651-0.0682-0.0193-0.1344-0.0342-0.2059-0.0395-0.0651-43e-4-0.1259 21e-4-0.1909 96e-4-0.0715 85e-4-0.1386 0.0181-0.208 0.0405-0.0672 0.0214-0.1268 0.0544-0.1887 0.0896-0.0395 0.0224-0.0843 0.0299-0.1216 0.0576L8.4584 46.973 6.6567 45.1788l4.798-4.7723 8.7212 8.5773zM31.9584 36.7883c-0.0309-42e-4-0.0598 75e-4-0.0906 54e-4-0.0779-43e-4-0.1525 11e-4-0.2304 0.0139-0.0608 0.0106-0.1184 0.0223-0.176 0.0426-0.0683 0.0235-0.1302 0.0555-0.1932 0.0939-0.0597 0.0362-0.1141 0.0746-0.1663 0.1226-0.0257 0.0224-0.0565 0.0331-0.08 0.0586l-9.3966 10.2914-8.6561-8.5132 5.6662-5.6364c0.4171-0.416 0.4193-1.0912 33e-4-1.5094-0.2102-0.2101-0.4864-0.3136-0.7627-0.3125v-1e-3l-4.4374 0.0267 0.0555-3.215 6.2081 0.0534c2.5302 2.5878 6.0587 4.2017 9.9628 4.2017 0.8746 0 1.728-0.0906 2.5589-0.2454 0.08 0.064 0.1589 0.1292 0.2592 0.1697l4.8194 1.92 0.305 1.5168 0.3562 1.7706zM40.0406 37.1446l-0.6261-3.1158 2.8928-2.1601 0.7574 1.0048 1.136 1.5083zM47.5479 31.4826l-1.6758 1.5702-1.8624-2.4726 1.6629-1.2746c0.3104-0.2389 0.7019-0.336 1.0859-0.2859 0.3861 0.0544 0.7275 0.256 0.96 0.5685 0.4331 0.5835 0.3595 1.3974-0.1706 1.8944z"/>
            <path fill="var(--color2, #2e2f42)"
                  d="m27.204 37.088-4.286-4.267c-.415-.415-1.089-.415-1.505 0l-4.285 4.267c-.2.202-.314.473-.314.756 0 .284.112.556.314.756l4.285 4.267c.208.207.481.31.753.31s.545-.103.752-.31l4.286-4.267c.201-.2.315-.472.315-.756 0-.284-.113-.556-.315-.756zM22.166 40.606l-2.773-2.762 2.773-2.762 2.774 2.762zM34.329 10.142l-.515 2.072c.142.035 3.475.904 3.475 4.298h2.133c0-4.034-3.331-5.931-5.093-6.369zM39.422 18.644h-2.133v2.134h2.133z"/>
        </symbol>
        <symbol id="icon-strategy" fill="none" viewBox="0 0 60 64">
            <path fill="var(--color2, #2e2f42)"
                  d="M59.4048 44.1952 42.5184 27.1851l1.8741-9.231c0.4836 0.1888 0.9978 0.2875 1.5168 0.2912h0.0128c2.3846 0.0282 4.3404-1.882 4.3687-4.2665s-1.882-4.3404-4.2665-4.3687c-2.3846-0.0281-4.3404 1.882-4.3687 4.2666-6e-3 0.5102 0.0784 1.0174 0.2495 1.4982l-9.92 1.2107L15.8037 0.32C15.6052 0.1175 15.3343 23e-4 15.0507 0c-0.28 15e-4-0.5482 0.1129-0.7467 0.3104l-3.0251 3.008c-0.4164 0.4165-0.4164 1.0917 0 1.5083l1.6278 1.6512c-6.3062 11.5958-4.2579 25.9556 5.0389 35.3258 0.0853 0.0816 0.1843 0.1476 0.2923 0.1952-0.0672 0.361-0.1023 0.7272-0.1046 1.0944v12.3734h-12.8C2.3893 55.4701 35e-4 57.856 0 60.8v2.1333C0 63.5224 0.4776 64 1.0667 64h49.0666c0.5891 0 1.0667-0.4776 1.0667-1.0667V60.8c-35e-4-2.944-2.3893-5.3299-5.3333-5.3333h-12.8v-5.4838c2.0052 0.4206 4.0482 0.635 6.097 0.64 4.9163-53e-4 9.7543-1.2309 14.08-3.5669l1.6363 1.6459c0.1985 0.2025 0.4695 0.3177 0.7531 0.32 0.28-15e-4 0.5481-0.113 0.7466-0.3104l3.0251-3.008c0.4164-0.4166 0.4164-1.0918 0-1.5083zM44.4181 12.4661c0.8354-0.8309 2.1862-0.8272 3.017 82e-4 0.8309 0.8353 0.8272 2.1861-82e-4 3.0169-0.3998 0.3977-0.9409 0.6209-1.5049 0.6208h-64e-4c-1.1781-61e-4-2.1284-0.9661-2.1223-2.1444 3e-3-0.564 0.2291-1.1037 0.629-1.5015zM41.9072 19.4752l-1.1968 5.8912-2.3509-2.3648zM40.6955 17.6715l-3.84 3.8176-2.9707-2.9867zM45.8667 57.6c1.7673 0 3.2 1.4327 3.2 3.2v1.0667H2.1333l0-1.0667c0-1.7673 1.4327-3.2 3.2-3.2zM30.9333 53.3333v2.1334H20.2667v-2.1334zM20.2667 51.2v-8.1067c0-2.5877 2.3925-4.6933 5.3333-4.6933s5.3333 2.1056 5.3333 4.6933V51.2zM33.0667 47.808v-4.7147c0-3.7642-3.3494-6.8266-7.4667-6.8266-2.6621-0.0408-5.1515 1.3142-6.5621 3.5722-8.1155-8.5476-9.943-21.2904-4.5572-31.7742l37.2036 37.4169c-5.7448 2.9224-12.3303 3.7452-18.6176 2.3264zM55.6448 46.4405l-1.5029-1.5114L15.04 5.5915 13.5307 4.0789 15.04 2.5749 30.9099 18.5344c74e-4 0 0.0117 0.0139 0.0192 0.0192l26.2293 26.3829z"/>
            <path fill="var(--color0, #4d5ae5)" d="M25.6096 40.5333H25.6c-1.7673-27e-4-3.2021 1.4279-3.2048 3.1952s1.4279 3.2021 3.1952 3.2048H25.6c1.7673 27e-4 3.2021-1.4279 3.2048-3.1952s-1.4279-3.2021-3.1952-3.2048zM26.3563 44.4896C26.1555 44.6893 25.8833 44.801 25.6 44.8c-0.5891-31e-4-1.0641-0.4831-1.0611-1.0722 15e-4-0.282 0.1146-0.5518 0.3144-0.7508 0.1986-0.1974 0.4667-0.3089 0.7467-0.3104 0.5891 31e-4 1.0641 0.4831 1.0611 1.0722-15e-4 0.282-0.1146 0.5518-0.3144 0.7508z"/>
        </symbol>
        <symbol id="icon-punctuality" fill="var(--color0, #4d5ae5)" viewBox="0 0 64 64">
            <path fill="var(--color1, #2e2f42)" d="M62.5933 30.6025C62.5899 13.6978 48.8828-34e-4 31.9775 0 15.0728 34e-4 1.3716 13.7109 1.375 30.6157c29e-4 13.3159 8.6138 25.1021 21.2988 29.1524 0.1211 0.0381 0.2471 0.0576 0.3736 0.0571 0.2412-5e-4 0.4775-0.0649 0.685-0.1875 0.27-0.1597 0.4717-0.4136 0.5664-0.7129l7.73-24.5c2.1133-0.0107 3.8174-1.7329 3.8062-3.8457-0.0108-2.1133-1.7325-3.8174-3.8457-3.8066-0.5684 24e-4-1.1294 0.1333-1.6402 0.3828L20.1372 16.9419c-0.5068-0.4893-1.314-0.4751-1.8032 0.0312-0.4776 0.4947-0.4776 1.2779 0 1.7725l10.2065 10.2183c-0.7832 1.5986-0.3354 3.5283 1.0728 4.6181l-7.3652 23.3457C7.6924 51.5659 0.2393 35.4199 5.6011 20.8643 10.9629 6.3086 27.1089-1.1445 41.6646 4.2173 56.2202 9.5791 63.6734 25.7256 58.3115 40.2808c-2.6196 7.1113-8.0019 12.8623-14.9243 15.9467l-0.7959-3.7485c-0.1455-0.689-0.8227-1.1294-1.5117-0.9834-0.2173 0.0464-0.4189 0.1484-0.585 0.2964l-7.6738 6.8511c-0.5264 0.4682-0.5732 1.2744-0.1045 1.8008 0.1524 0.1709 0.3477 0.2978 0.5664 0.3676l9.7974 3.127c0.6704 0.2153 1.3887-0.1533 1.604-0.8242 0.0684-0.212 0.0796-0.4375 0.0337-0.6553l-0.7822-3.6782c11.3286-4.7759 18.684-15.8843 18.6577-28.1783zM31.9844 29.3272c0.7041 0 1.2754 0.5712 1.2754 1.2753 0 0.7046-0.5713 1.2754-1.2754 1.2754-0.7046 0-1.2754-0.5708-1.2754-1.2754 0-0.7041 0.5708-1.2753 1.2754-1.2753zM36.1851 59.0552l4.3681-3.8965 1.2056 5.6807z"/>
            <path d="M30.709 6.3701v2.5508c0 0.7046 0.5708 1.2754 1.2754 1.2754 0.7041 0 1.2754-0.5708 1.2754-1.2754V6.3701c0-0.7041-0.5713-1.2754-1.2754-1.2754-0.7046 0-1.2754 0.5713-1.2754 1.2754z"/>
            <path d="M7.752 29.3271c-0.7046 0-1.2754 0.5713-1.2754 1.2754 0 0.7046 0.5708 1.2754 1.2753 1.2754h2.5508c0.7046 0 1.2754-0.5708 1.2754-1.2754 0-0.7041-0.5708-1.2754-1.2754-1.2754z"/>
            <path d="M56.2162 31.8779c0.7046 0 1.2754-0.5708 1.2754-1.2754 0-0.7041-0.5708-1.2754-1.2754-1.2754h-2.5507c-0.7041 0-1.2754 0.5713-1.2754 1.2754 0 0.7046 0.5713 1.2754 1.2754 1.2754z"/>
        </symbol>
        <symbol id="icon-logo" fill="none" viewBox="0 0 115 24">
            <path fill="var(--color1, #4d5ae5)"
                  d="M5.706 5.756H8.01l1.458 4.23 1.476-4.23h2.286l-2.196 5.814 1.62 4.068 3.618-9.918h2.7L13.86 18.5h-2.142l-2.25-5.364L7.236 18.5H5.094L0 5.72h2.664L6.3 15.638 7.884 11.57zM29.6952 16.322V18.5h-8.874V5.72h8.712v2.178h-6.228v3.078h5.382v2.016h-5.382v3.33zM42.4678 15.206c0 0.72-0.186 1.326-0.558 1.818-0.372 0.48-0.876 0.846-1.512 1.098-0.624 0.252-1.308 0.378-2.052 0.378h-6.174V5.72h6.84c0.6 0 1.116 0.162 1.548 0.486 0.444 0.312 0.78 0.72 1.008 1.224 0.24 0.492 0.36 1.008 0.36 1.548 0 0.612-0.156 1.194-0.468 1.746s-0.768 0.96-1.368 1.224c0.732 0.216 1.308 0.606 1.728 1.17 0.432 0.564 0.648 1.26 0.648 2.088zM39.9658 14.738c0-0.324-0.066-0.612-0.198-0.864-0.132-0.264-0.312-0.468-0.54-0.612-0.216-0.156-0.468-0.234-0.756-0.234h-3.816v3.366h3.69c0.3 0 0.57-0.072 0.81-0.216 0.252-0.156 0.45-0.36 0.594-0.612s0.216-0.528 0.216-0.828zM34.6558 7.844v3.222h3.312c0.276 0 0.528-0.066 0.756-0.198s0.408-0.318 0.54-0.558c0.144-0.24 0.216-0.528 0.216-0.864 0-0.324-0.066-0.606-0.198-0.846-0.12-0.24-0.288-0.426-0.504-0.558-0.204-0.132-0.438-0.198-0.702-0.198z"/>
            <path fill="var(--color2, #2e2f42)"
                  d="M52.946 9.068c-0.084-0.084-0.24-0.198-0.468-0.342-0.216-0.144-0.486-0.282-0.81-0.414-0.312-0.132-0.654-0.246-1.026-0.342-0.372-0.108-0.75-0.162-1.134-0.162-0.672 0-1.182 0.126-1.53 0.378-0.336 0.252-0.504 0.606-0.504 1.062 0 0.348 0.108 0.624 0.324 0.828s0.54 0.378 0.972 0.522 0.972 0.3 1.62 0.468c0.84 0.204 1.566 0.456 2.178 0.756 0.624 0.288 1.098 0.672 1.422 1.152 0.336 0.468 0.504 1.092 0.504 1.872 0 0.684-0.126 1.272-0.378 1.764-0.252 0.48-0.6 0.87-1.044 1.17s-0.948 0.522-1.512 0.666c-0.564 0.132-1.164 0.198-1.8 0.198s-1.272-0.066-1.908-0.198-1.248-0.318-1.836-0.558c-0.588-0.252-1.128-0.552-1.62-0.9l1.098-2.142c0.108 0.108 0.3 0.252 0.576 0.432 0.276 0.168 0.612 0.342 1.008 0.522 0.396 0.168 0.828 0.312 1.296 0.432s0.942 0.18 1.422 0.18c0.672 0 1.182-0.114 1.53-0.342s0.522-0.552 0.522-0.972c0-0.384-0.138-0.684-0.414-0.9s-0.66-0.402-1.152-0.558c-0.492-0.168-1.074-0.348-1.746-0.54-0.804-0.228-1.476-0.48-2.016-0.756-0.54-0.288-0.942-0.648-1.206-1.08s-0.396-0.972-0.396-1.62c0-0.876 0.204-1.608 0.612-2.196 0.42-0.6 0.984-1.05 1.692-1.35 0.708-0.312 1.494-0.468 2.358-0.468 0.6 0 1.164 0.066 1.692 0.198 0.54 0.132 1.044 0.306 1.512 0.522s0.888 0.45 1.26 0.702zM66.4691 7.898h-4.086V18.5h-2.466V7.898h-4.086V5.72h10.638zM74.0136 18.59c-1.02 0-1.89-0.168-2.61-0.504-0.708-0.348-1.284-0.822-1.728-1.422-0.432-0.6-0.75-1.278-0.954-2.034-0.204-0.768-0.306-1.566-0.306-2.394V5.72h2.484v6.516c0 0.528 0.048 1.044 0.144 1.548 0.108 0.492 0.282 0.936 0.522 1.332s0.558 0.708 0.954 0.936 0.888 0.342 1.476 0.342c0.6 0 1.098-0.114 1.494-0.342 0.408-0.24 0.726-0.558 0.954-0.954 0.24-0.396 0.414-0.84 0.522-1.332 0.108-0.504 0.162-1.014 0.162-1.53V5.72h2.466v6.516c0 0.876-0.108 1.698-0.324 2.466-0.204 0.768-0.534 1.446-0.99 2.034-0.444 0.576-1.02 1.032-1.728 1.368-0.708 0.324-1.554 0.486-2.538 0.486zM82.6356 18.5V5.72h4.644c1.392 0 2.556 0.288 3.492 0.864 0.936 0.564 1.638 1.332 2.106 2.304 0.468 0.96 0.702 2.028 0.702 3.204 0 1.296-0.258 2.424-0.774 3.384s-1.248 1.704-2.196 2.232c-0.936 0.528-2.046 0.792-3.33 0.792zM91.0776 12.092c0-0.828-0.15-1.554-0.45-2.178-0.3-0.636-0.732-1.128-1.296-1.476-0.564-0.36-1.248-0.54-2.052-0.54h-2.16v8.424h2.16c0.816 0 1.506-0.18 2.07-0.54 0.564-0.372 0.99-0.876 1.278-1.512 0.3-0.648 0.45-1.374 0.45-2.178zM96.0604 18.5V5.72h2.484V18.5zM107.205 18.59c-0.936 0-1.788-0.18-2.556-0.54-0.756-0.36-1.41-0.846-1.962-1.458-0.54-0.624-0.96-1.32-1.26-2.088-0.3-0.78-0.45-1.578-0.45-2.394 0-0.852 0.156-1.662 0.468-2.43 0.324-0.78 0.762-1.47 1.314-2.07 0.564-0.612 1.224-1.092 1.98-1.44 0.768-0.36 1.608-0.54 2.52-0.54 0.924 0 1.764 0.186 2.52 0.558 0.768 0.372 1.422 0.87 1.962 1.494s0.96 1.32 1.26 2.088 0.45 1.56 0.45 2.376c0 0.84-0.156 1.65-0.468 2.43-0.312 0.768-0.75 1.458-1.314 2.07-0.552 0.6-1.212 1.074-1.98 1.422-0.756 0.348-1.584 0.522-2.484 0.522zM103.497 12.11c0 0.552 0.084 1.086 0.252 1.602s0.408 0.978 0.72 1.386c0.324 0.396 0.714 0.714 1.17 0.954 0.468 0.228 0.996 0.342 1.584 0.342 0.6 0 1.134-0.12 1.602-0.36 0.468-0.252 0.858-0.582 1.17-0.99 0.312-0.42 0.546-0.882 0.702-1.386 0.168-0.516 0.252-1.032 0.252-1.548 0-0.552-0.09-1.08-0.27-1.584-0.168-0.516-0.414-0.972-0.738-1.368-0.312-0.408-0.702-0.726-1.17-0.954-0.456-0.24-0.972-0.36-1.548-0.36-0.612 0-1.152 0.126-1.62 0.378-0.456 0.24-0.84 0.564-1.152 0.972s-0.552 0.864-0.72 1.368c-0.156 0.504-0.234 1.02-0.234 1.548z"/>
        </symbol>
        <symbol id="icon-linkedin" fill="none" viewBox="0 0 40 40">
            <path fill="var(--color1, #4d5ae5)"
                  d="M40 20c0 5.5228-2.2386 10.5228-5.8579 14.1421S25.5228 40 20 40 9.4772 37.7614 5.8579 34.1421C2.2386 30.5228 0 25.5228 0 20S2.2386 9.4772 5.8579 5.8579C9.4772 2.2386 14.4772 0 20 0s10.5228 2.2386 14.1421 5.8579C37.7614 9.4772 40 14.4772 40 20z"/>
            <g fill="var(--color0, #f4f4fd)" clip-path="url(#clip0_431671_2301)">
                <path d="M31.994 32v-.001h.006v-8.802c0-4.306-.927-7.623-5.961-7.623-2.42 0-4.044 1.328-4.707 2.587h-.07v-2.185h-4.773v16.023h4.97v-7.934c0-2.089.396-4.109 2.983-4.109 2.549 0 2.587 2.384 2.587 4.243V32zM8.396 15.977h4.976V32H8.396zM10.882 8C9.291 8 8 9.291 8 10.882c0 1.591 1.291 2.909 2.882 2.909 1.591 0 2.882-1.318 2.882-2.909C13.763 9.291 12.472 8 10.882 8z"/>
            </g>
            <defs>
                <clipPath id="clip0_431671_2301">
                    <path fill="#fff" d="M0 0H24V24H0z" transform="translate(8.00003 8)"/>
                </clipPath>
            </defs>
        </symbol>
        <symbol id="icon-instagram" fill="none" viewBox="0 0 40 40">
            <path fill="var(--color1, #4d5ae5)"
                  d="M40 20c0 5.5228-2.2386 10.5228-5.8579 14.1421S25.5228 40 20 40 9.4772 37.7614 5.8579 34.1421C2.2386 30.5228 0 25.5228 0 20S2.2386 9.4772 5.8579 5.8579C9.4772 2.2386 14.4772 0 20 0s10.5228 2.2386 14.1421 5.8579C37.7614 9.4772 40 14.4772 40 20z"/>
            <g fill="var(--color0, #f4f4fd)" clip-path="url(#clip0_431671_2298)">
                <path d="M31.9765 15.0561c-0.0562-1.2752-0.2624-2.1519-0.5578-2.9116-0.3048-0.8064-0.7736-1.5283-1.3879-2.1285-0.6001-0.6095-1.3268-1.0831-2.1239-1.3831-0.764-0.2954-1.6361-0.5016-2.9114-0.5578C23.7108 8.0141 23.303 8 20.0445 8c-3.2584 0-3.6663 0.0141-4.9463 0.0703-1.2752 0.0563-2.1519 0.2627-2.9114 0.5579-0.8065 0.3047-1.5285 0.7736-2.1286 1.3878-0.6095 0.6002-1.0829 1.3269-1.3831 2.1239-0.2954 0.7643-0.5016 1.6362-0.5578 2.9114-0.061 1.2847-0.0751 1.6926-0.0751 4.951 0 3.2585 0.0141 3.6663 0.0703 4.9463 0.0562 1.2752 0.2626 2.1519 0.558 2.9116 0.3048 0.8064 0.7782 1.5283 1.3877 2.1285 0.6001 0.6095 1.3268 1.0831 2.1239 1.3831 0.7642 0.2954 1.6362 0.5016 2.9116 0.5578 1.2797 0.0564 1.6878 0.0703 4.9462 0.0703 3.2585 0 3.6663-0.0139 4.9463-0.0703 1.2752-0.0562 2.1519-0.2624 2.9114-0.5578 1.6129-0.6236 2.8881-1.8989 3.5117-3.5116 0.2953-0.7642 0.5017-1.6364 0.5579-2.9116 0.0562-1.28 0.0703-1.6878 0.0703-4.9463 0-3.2584-48e-4-3.6663-0.061-4.9462zM29.8153 24.8549c-0.0517 1.1721-0.2486 1.805-0.4126 2.227-0.4033 1.0455-1.2331 1.8753-2.2787 2.2786-0.4219 0.1641-1.0595 0.361-2.227 0.4124-1.2659 0.0564-1.6455 0.0704-4.8477 0.0704-3.2023 0-3.5867-0.014-4.848-0.0704-1.1721-0.0514-1.805-0.2483-2.227-0.4124-0.5203-0.1923-0.9939-0.4971-1.3783-0.8956-0.3985-0.3891-0.7032-0.858-0.8955-1.3783-0.1641-0.4219-0.361-1.0596-0.4125-2.227-0.0564-1.2659-0.0703-1.6457-0.0703-4.8479s0.0139-3.5867 0.0703-4.8478c0.0515-1.1721 0.2484-1.805 0.4125-2.227 0.1923-0.5204 0.497-0.9939 0.9003-1.3785 0.389-0.3985 0.8578-0.7032 1.3783-0.8953 0.422-0.1641 1.0597-0.361 2.227-0.4127 1.2659-0.0562 1.6457-0.0703 4.8477-0.0703 3.207 0 3.5867 0.0141 4.848 0.0703 1.1721 0.0517 1.805 0.2486 2.227 0.4127 0.5203 0.1921 0.9939 0.4968 1.3783 0.8953 0.3985 0.3892 0.7033 0.8581 0.8956 1.3785 0.164 0.422 0.3609 1.0595 0.4126 2.227 0.0562 1.2659 0.0703 1.6456 0.0703 4.8478s-0.0141 3.5773-0.0703 4.8432z"/>
                <path d="M20.045 13.837c-3.404 0-6.165 2.761-6.165 6.165 0 3.404 2.762 6.165 6.165 6.165 3.404 0 6.165-2.761 6.165-6.165 0-3.404-2.761-6.165-6.165-6.165zM20.045 24.001c-2.208 0-3.999-1.791-3.999-3.999s1.791-3.999 3.999-3.999c2.208 0 3.999 1.791 3.999 3.999s-1.791 3.999-3.999 3.999zM27.893 13.593c0 .795-.644 1.439-1.439 1.439-.795 0-1.439-.644-1.439-1.439 0-.795.645-1.439 1.439-1.439.795 0 1.44.644 1.44 1.439z"/>
            </g>
            <defs>
                <clipPath id="clip0_431671_2298">
                    <path fill="#fff" d="M0 0H24V24H0z" transform="translate(8 8)"/>
                </clipPath>
            </defs>
        </symbol>
        <symbol id="icon-facebook" fill="none" viewBox="0 0 40 40">
            <path fill="var(--color1, #4d5ae5)"
                  d="M40 20c0 5.5228-2.2386 10.5228-5.8579 14.1421S25.5228 40 20 40 9.4772 37.7614 5.8579 34.1421C2.2386 30.5228 0 25.5228 0 20S2.2386 9.4772 5.8579 5.8579C9.4772 2.2386 14.4772 0 20 0s10.5228 2.2386 14.1421 5.8579C37.7614 9.4772 40 14.4772 40 20z"/>
            <path fill="var(--color0, #f4f4fd)"
                  d="M23.997 11.985h2.191V8.169C25.81 8.117 24.51 8 22.996 8c-3.159 0-5.323 1.987-5.323 5.639V17h-3.486v4.266h3.486V32h4.274V21.267h3.345l0.531-4.266h-3.877v-2.939c1e-3-1.233 0.333-2.077 2.051-2.077z"/>
        </symbol>
        <symbol id="icon-diligence" fill="none" viewBox="0 0 64 64"><g fill="var(--color0, #4d5ae5)" clip-path="url(#clip0_1004689_1305)">
            <path d="M29.851 29.9292h2.1323v9.595H29.851z"/>
            <path d="M38.3799 34.1936h2.1322v5.3306h-2.1322z"/>
            <path d="M21.3222 37.392h2.1322v2.1322h-2.1322z"/>
            <path d="M14.9255 36.3258h2.1322v3.1983h-2.1322z"/>
            <path fill="var(--color1, #2e2f42)" d="M3.1983 56.5819h51.1732c1.7663 0 3.1984-1.432 3.1984-3.1983v-4.2644c0-1.7663-1.4321-3.1983-3.1984-3.1983h-1.0661V19.3343l6.0557-5.7366c1.4055 0.6928 3.1067 0.2722 4.0265-0.9974 0.9204-1.2691 0.7913-3.0167-0.305-4.1369-1.0963-1.1203-2.8402-1.2874-4.1296-0.3956-1.2889 0.8922-1.747 2.5835-1.0849 4.0041l-4.5627 4.3254v-2.4597c0-1.7663-1.432-3.1983-3.1983-3.1983H7.4628c-1.7663 0-3.1984 1.432-3.1984 3.1983l0 31.9833H3.1983C1.4321 45.9209 0 47.3529 0 49.1192v4.2644c0 1.7663 1.4321 3.1983 3.1983 3.1983zM60.7682 9.6732c0.5887 0 1.0661 0.4773 1.0661 1.0661 0 0.5887-0.4774 1.0661-1.0661 1.0661-0.5888 0-1.0661-0.4774-1.0661-1.0661 0-0.5888 0.4773-1.0661 1.0661-1.0661zM6.3967 13.9376c0-0.5887 0.4773-1.0661 1.0661-1.0661h42.6443c0.5887 0 1.0661 0.4774 1.0661 1.0661v4.4773L49.041 20.441v-4.3712c0-0.5887-0.4774-1.0661-1.0661-1.0661H9.595c-0.5888 0-1.0661 0.4774-1.0661 1.0661l0 26.6527c0 0.5888 0.4773 1.0661 1.0661 1.0661h38.3799c0.5887 0 1.0661-0.4773 1.0661-1.0661V23.3738l2.1322-2.0203v24.5674H6.3967zM15.9916 27.797c-1.4424-41e-4-2.709 0.9568-3.0926 2.3472-0.3837 1.3904 0.2103 2.8652 1.4508 3.6013 1.24 0.736 2.8199 0.5512 3.8563-0.4519l3.7059 1.8595c0.4305 0.2155 0.9526 0.1145 1.2727-0.2452l7.8777-8.8626 7.7438 5.8027c0.4154 0.3113 0.9954 0.278 1.3722-0.0786l6.7304-6.3753v16.2623H10.6611V17.1359h36.2477v5.3207l-7.543 7.1431-7.8089-5.8542c-0.4435-0.3321-1.0677-0.2697-1.4362 0.1442l-7.9859 8.9854-2.9855-1.493c0.0219-0.128 0.0354-0.2571 0.0407-0.3868 0-1.7662-1.4321-3.1983-3.1984-3.1983zM17.0577 30.9953c0 0.5888-0.4773 1.0662-1.0661 1.0662-0.5887 0-1.0661-0.4774-1.0661-1.0662 0-0.5887 0.4774-1.0661 1.0661-1.0661 0.5888 0 1.0661 0.4774 1.0661 1.0661zM23.4544 48.0531h10.6611v1.0661c0 0.5887-0.4774 1.0661-1.0661 1.0661h-8.5289c-0.5888 0-1.0661-0.4774-1.0661-1.0661zM2.1322 49.1192c0-0.5888 0.4774-1.0661 1.0661-1.0661h18.1239v1.0661c0 1.7663 1.432 3.1983 3.1983 3.1983h8.5289c1.7662 0 3.1983-1.432 3.1983-3.1983v-1.0661h18.1238c0.5888 0 1.0661 0.4773 1.0661 1.0661v4.2644c0 0.5888-0.4773 1.0661-1.0661 1.0661H3.1983c-0.5887 0-1.0661-0.4773-1.0661-1.0661z"/></g>
            <defs>
                <clipPath id="clip0_1004689_1305"><path fill="#fff" d="M0 0H64V64H0z"/></clipPath>
        </defs>
        </symbol>
    </defs>
</svg>